<?xml version="1.0" encoding="UTF-8"?>
<!-- Created with Inkscape (http://www.inkscape.org/) -->
<svg width="57.058mm" height="57.058mm" version="1.1" viewBox="0 0 57.058 57.058" xmlns="http://www.w3.org/2000/svg">
 <g transform="translate(-58.074 -111.47)" stroke-linecap="square" stroke-linejoin="bevel">
  <rect x="58.074" y="111.47" width="57.058" height="57.058" stop-color="#000000" stroke-width=".79375"/>
  <path d="m86.603 166-22.517-13v-26l22.517-13 22.517 13v26z" fill="#808080" stop-color="#000000" stroke-width=".79375"/>
  <path d="m64.952 152.5 21.651 12.5 21.651-12.5-21.651-12.5z" fill="#e0cb28" stop-color="#000000" stroke-width=".79375"/>
  <path d="m64.952 152.5v-25l21.651-12.5v25z" fill="#e02887" stop-color="#000000" stroke-width=".79375"/>
  <path d="m108.25 152.5-21.651-12.5v-25l21.651 12.5z" fill="#28cbe0" stop-color="#000000" stroke-width=".79375"/>
  <path d="m81.406 128.81-3.3202 1.9167v6.3888l3.3202-1.9167zm-1.1069 1.9167v3.8334l-1.1064 0.63872v-3.8334zm-3.3197 0.63872-3.3197 1.9167v3.8334l2.2133-1.278v1.278l-2.2133 1.2774v1.278l3.3197-1.9167v-3.8334l-2.2128 1.278v-1.278l2.2128-1.2774zm-4.4266 2.5559-1.1064 0.63872v6.3893l1.1064-0.63924z" stop-color="#000000" stroke-width="1.0142"/>
  <path d="m88.063 127.91v5.9376l1.0289 0.59376v-2.375l1.0284 0.59428 1.0284 2.9683 1.0284 0.59376-1.0284-4.1563 1.0284-0.59324v4.7496l3.0856 1.7813v-5.9376l-3.0856-1.7808v-5.1e-4zm1.0289 1.7818 2.0567 1.187-1.0284 0.59428-1.0284-0.59428zm4.114 2.3745 1.0284 0.59428v3.5621l-1.0284-0.59325zm2.4355 0.21911v5.9371l3.0856 1.7818v-5.9381zm1.0284 1.7808 1.0284 0.59428v3.5621l-1.0284-0.59325zm2.4355 0.21911v5.9376l1.0284 0.59376v-3.5626l1.0284 1.7813 1.0284-0.59377v3.5621l1.0289 0.59376v-5.9371l-2.0572 1.1875zm4.3305 2.5001v3.5626l2.0567 1.1875v1.187l-2.0567-1.1875v1.1875l3.0851 1.7813v-3.5621l-2.0567-1.1875v-1.1875l2.0567 1.1875v-1.1875z" stop-color="#000000" stroke-width=".94258"/>
 </g>
</svg>
